Coordinates
version=1
nRows=14
nColumns=24
inDegrees=yes

Units are S.I. units (second, meters, Newtons, ...)
Angles are in degrees.

endheader
time	pelvis_tilt	pelvis_list	pelvis_rotation	pelvis_tx	pelvis_ty	pelvis_tz	hip_flexion_r	hip_adduction_r	hip_rotation_r	knee_angle_r	ankle_angle_r	subtalar_angle_r	mtp_angle_r	hip_flexion_l	hip_adduction_l	hip_rotation_l	knee_angle_l	ankle_angle_l	subtalar_angle_l	mtp_angle_l	lumbar_extension	lumbar_bending	lumbar_rotation
      1.69000000	     -9.75154458	      0.58080584	      0.60627163	     -0.11158004	      1.23320280	     -0.84871137	     35.01192810	      3.71290505	      1.36964976	    -30.87168142	      7.98945953	     -3.85321432	      7.55999150	     12.17787011	     10.54639840	     12.87193282	    -19.97542591	      7.56485074	     -5.97998945	      7.77141168	     -3.24471207	     -1.99101968	     -2.46302923
      1.69500000	     -9.74378093	      0.53320640	      0.65976193	     -0.10568448	      1.23275663	     -0.84848132	     34.77343934	      3.70185548	      1.57381928	    -28.36491417	      7.99450191	     -4.00505419	      7.40135732	     11.71502860	     10.48808295	     12.90376423	    -20.02835779	      7.95007270	     -5.82337936	      7.81166236	     -3.27556384	     -1.94415209	     -2.57880217
      1.70000000	     -9.75233916	      0.51515422	      0.68858363	     -0.09976431	      1.23220306	     -0.84811041	     34.51683087	      3.69035112	      1.85010336	    -25.83604925	      7.88476946	     -4.28546623	      7.26324273	     11.31160377	     10.43881297	     12.79134234	    -20.15807898	      8.43364095	     -5.49246637	      7.85021830	     -3.28076930	     -1.95408929	     -2.60685195
      1.70500000	     -9.76280221	      0.51312850	      0.79095538	     -0.09378639	      1.23159803	     -0.84787567	     34.24245867	      3.58105501	      1.92904886	    -23.35936433	      7.84714183	     -4.32877562	      7.14923073	     10.88392440	     10.43628605	     12.82726123	    -20.24905353	      8.81560862	     -5.31683385	      7.91816777	     -3.27783106	     -1.97013492	     -2.73649960
      1.71000000	     -9.78447852	      0.52751256	      0.89156778	     -0.08779538	      1.23091959	     -0.84760200	     33.96845419	      3.45676602	      1.97836243	    -20.93778428	      7.75142146	     -4.35573747	      7.04637136	     10.50102677	     10.44562516	     12.79973105	    -20.39811087	      9.22443416	     -5.06405894	      8.01340084	     -3.26014464	     -2.00752024	     -2.82780285
      1.71500000	     -9.83114827	      0.54754732	      1.02312546	     -0.08177987	      1.23019240	     -0.84733431	     33.72041494	      3.30298705	      1.91805342	    -18.61119010	      7.65008039	     -4.27360713	      6.95539841	     10.17118921	     10.46721567	     12.78585929	    -20.60074995	      9.61093885	     -4.79709349	      8.12501005	     -3.21071621	     -2.06509787	     -2.90783585
      1.72000000	     -9.87923693	      0.57276303	      1.13534805	     -0.07567674	      1.22943666	     -0.84699104	     33.45749058	      3.16582406	      1.82954954	    -16.36369611	      7.56746837	     -4.15433071	      6.87243534	      9.84106180	     10.46943159	     12.66981132	    -20.79845968	     10.06920345	     -4.38722240	      8.25465081	     -3.14949051	     -2.12571007	     -3.01007684
      1.72500000	     -9.94547444	      0.59273820	      1.29325739	     -0.06957516	      1.22865228	     -0.84671283	     33.21474512	      3.00506986	      1.59331255	    -14.22817885	      7.47028255	     -3.91146393	      6.80893971	      9.57015231	     10.48495305	     12.61080174	    -21.07293514	     10.47811684	     -4.00675346	      8.39348464	     -3.07055781	     -2.18258448	     -3.10628178
      1.73000000	    -10.02807503	      0.60647968	      1.47543237	     -0.06344287	      1.22785100	     -0.84644807	     32.98866518	      2.84583275	      1.24318124	    -12.21079598	      7.35355030	     -3.59107236	      6.76865830	      9.34706407	     10.49977549	     12.56790789	    -21.40335301	     10.84637467	     -3.63729128	      8.56180447	     -2.96683666	     -2.23643937	     -3.18570800
      1.73500000	    -10.10544154	      0.61909476	      1.65820345	     -0.05726110	      1.22703913	     -0.84615008	     32.75655664	      2.70405711	      0.83327164	    -10.32155111	      7.23202964	     -3.19064815	      6.75731707	      9.13829509	     10.50226115	     12.47969519	    -21.77225437	     11.23683784	     -3.19909510	      8.76573533	     -2.86275105	     -2.28692407	     -3.28021205
      1.74000000	    -10.19044832	      0.64226157	      1.82360401	     -0.05100577	      1.22621316	     -0.84577757	     32.54187473	      2.58116495	      0.40757061	     -8.58702948	      7.15570394	     -2.65960489	      6.81100550	      8.95591394	     10.49395785	     12.30509053	    -22.17490274	     11.69944371	     -2.58101166	      9.00948101	     -2.74056645	     -2.34952796	     -3.39905398
      1.74500000	    -10.29353123	      0.65136230	      2.01584970	     -0.04474397	      1.22536962	     -0.84543304	     32.35826874	      2.47479828	     -0.11541719	     -7.01448069	      7.03587986	     -2.11030579	      6.88498670	      8.83926266	     10.48224766	     12.16287199	    -22.66194467	     12.09681987	     -2.00924430	      9.24986472	     -2.59748393	     -2.39800406	     -3.48591328
      1.75000000	    -10.40640492	      0.64544943	      2.23324735	     -0.03847535	      1.22453186	     -0.84512890	     32.19711528	      2.38667613	     -0.71079226	     -5.61670343	      6.85948756	     -1.59536868	      6.96094018	      8.77328419	     10.46615503	     12.06878565	    -23.22113437	     12.42863242	     -1.49421130	      9.52042793	     -2.44026764	     -2.42233526	     -3.56328770
      1.75500000	    -10.52082621	      0.65602419	      2.41005409	     -0.03214323	      1.22368474	     -0.84470551	     32.05741809	      2.32558705	     -1.25920005	     -4.40639870	      6.74842901	     -0.92746525	      7.10970359	      8.72720208	     10.43351831	     11.84759484	    -23.80667543	     12.81643083	     -0.80809689	      9.86520211	     -2.27617751	     -2.46559688	     -3.65456220
